<svg width="65" height="65" viewBox="0 0 65 65" fill="none" xmlns="http://www.w3.org/2000/svg">
<rect x="0.8396" y="0.436035" width="63.9678" height="63.9678" rx="31.9839" fill="#171A46"/>
<path d="M30.0216 38.0127C30.0216 37.0598 30.166 36.2225 30.4548 35.5006C30.7724 34.7499 31.1622 34.0858 31.6242 33.5083C32.0862 32.9308 32.577 32.4111 33.0968 31.9491C33.6454 31.4582 34.1507 30.9962 34.6127 30.5631C35.0747 30.1011 35.45 29.6391 35.7388 29.1771C36.0564 28.7152 36.2152 28.2099 36.2152 27.6612C36.2152 26.795 35.8543 26.1165 35.1324 25.6256C34.4394 25.1347 33.5299 24.8893 32.4038 24.8893C31.2488 24.8893 30.1949 25.1636 29.242 25.7122C28.3181 26.2608 27.5673 27.026 26.9898 28.0077L20.5364 24.5428C21.6625 22.6082 23.2939 21.0635 25.4306 19.9085C27.5673 18.7246 30.2238 18.1327 33.3999 18.1327C35.6233 18.1327 37.5867 18.4503 39.2903 19.0856C41.0228 19.6919 42.3799 20.6015 43.3616 21.8142C44.3433 23.0269 44.8342 24.5139 44.8342 26.2753C44.8342 27.4014 44.6609 28.3831 44.3144 29.2205C43.968 30.0578 43.5204 30.7941 42.9718 31.4293C42.452 32.0646 41.889 32.6565 41.2826 33.2051C40.6763 33.7249 40.0988 34.2302 39.5502 34.721C39.0304 35.2119 38.5973 35.7172 38.2508 36.2369C37.9043 36.7567 37.7311 37.3486 37.7311 38.0127H30.0216ZM33.8764 49.4469C32.4615 49.4469 31.2921 48.9994 30.3681 48.1043C29.4442 47.2092 28.9822 46.1408 28.9822 44.8992C28.9822 43.6288 29.4442 42.5748 30.3681 41.7375C31.2921 40.8713 32.4615 40.4381 33.8764 40.4381C35.349 40.4381 36.5328 40.8713 37.4279 41.7375C38.3519 42.5748 38.8139 43.6288 38.8139 44.8992C38.8139 46.1408 38.3519 47.2092 37.4279 48.1043C36.5328 48.9994 35.349 49.4469 33.8764 49.4469Z" fill="white"/>
</svg>
