<svg width="33" height="33" viewBox="0 0 33 33" fill="none" xmlns="http://www.w3.org/2000/svg">
<g clip-path="url(#clip0_24_329)">
<path d="M28.1267 13.4998C28.1267 22.8414 16.1162 30.8484 16.1162 30.8484C16.1162 30.8484 4.10559 22.8414 4.10559 13.4998C4.10559 10.3144 5.37099 7.25949 7.6234 5.00707C9.87582 2.75465 12.9308 1.48926 16.1162 1.48926C19.3016 1.48926 22.3565 2.75465 24.6089 5.00707C26.8613 7.25949 28.1267 10.3144 28.1267 13.4998Z" stroke="black" stroke-width="1.33451" stroke-linecap="round" stroke-linejoin="round"/>
<path d="M16.1162 17.5031C18.3273 17.5031 20.1197 15.7107 20.1197 13.4996C20.1197 11.2885 18.3273 9.49609 16.1162 9.49609C13.9051 9.49609 12.1127 11.2885 12.1127 13.4996C12.1127 15.7107 13.9051 17.5031 16.1162 17.5031Z" stroke="black" stroke-width="1.33451" stroke-linecap="round" stroke-linejoin="round"/>
</g>
<defs>
<clipPath id="clip0_24_329">
<rect width="32.0282" height="32.0282" fill="white" transform="translate(0.102051 0.154785)"/>
</clipPath>
</defs>
</svg>
